<mxfile host="Electron" agent="Mozilla/5.0 (Windows NT 10.0; Win64; x64) AppleWebKit/537.36 (KHTML, like Gecko) draw.io/27.0.9 Chrome/134.0.6998.205 Electron/35.4.0 Safari/537.36" version="27.0.9" pages="3">
  <diagram name="DWH Data Architecture" id="2WEZNPbBBwXyBtnpg3-z">
    <mxGraphModel dx="1826" dy="875" grid="0" gridSize="10" guides="1" tooltips="1" connect="1" arrows="1" fold="1" page="0" pageScale="1" pageWidth="850" pageHeight="1100" math="0" shadow="0">
      <root>
        <mxCell id="0" />
        <mxCell id="1" parent="0" />
        <mxCell id="UR1esaYo1cbjDjkYrfGj-58" value="" style="rounded=0;whiteSpace=wrap;html=1;fillColor=none;dashed=1;strokeColor=light-dark(#a5a1a1, #ededed);" parent="1" vertex="1">
          <mxGeometry x="-2" y="85" width="601" height="540" as="geometry" />
        </mxCell>
        <mxCell id="UR1esaYo1cbjDjkYrfGj-53" value="" style="rounded=1;whiteSpace=wrap;html=1;fillColor=none;dashed=1;strokeColor=light-dark(#a5a1a1, #ededed);" parent="1" vertex="1">
          <mxGeometry x="624" y="90" width="171" height="535" as="geometry" />
        </mxCell>
        <mxCell id="UR1esaYo1cbjDjkYrfGj-1" value="" style="rounded=1;whiteSpace=wrap;html=1;fillColor=none;strokeColor=light-dark(#d3cfcf, #ededed);labelBorderColor=none;dashed=1;strokeWidth=2;dashPattern=1 2;" parent="1" vertex="1">
          <mxGeometry x="-177" y="90" width="154" height="538" as="geometry" />
        </mxCell>
        <mxCell id="UR1esaYo1cbjDjkYrfGj-2" value="&lt;font style=&quot;font-size: 24px;&quot;&gt;&lt;b&gt;Sources&lt;span style=&quot;white-space: pre;&quot;&gt;&#x9;&lt;/span&gt;&lt;/b&gt;&lt;/font&gt;" style="rounded=0;whiteSpace=wrap;html=1;strokeColor=none;" parent="1" vertex="1">
          <mxGeometry x="-142" y="67" width="90" height="40" as="geometry" />
        </mxCell>
        <mxCell id="UR1esaYo1cbjDjkYrfGj-4" value="&lt;span style=&quot;font-size: 24px;&quot;&gt;&lt;b&gt;Data Warehouse&lt;/b&gt;&lt;/span&gt;" style="rounded=0;whiteSpace=wrap;html=1;strokeColor=none;" parent="1" vertex="1">
          <mxGeometry x="153" y="60" width="260" height="40" as="geometry" />
        </mxCell>
        <mxCell id="UR1esaYo1cbjDjkYrfGj-6" value="&lt;span style=&quot;font-size: 24px;&quot;&gt;&lt;b&gt;Consume&lt;/b&gt;&lt;/span&gt;" style="rounded=0;whiteSpace=wrap;html=1;strokeColor=none;" parent="1" vertex="1">
          <mxGeometry x="648" y="67" width="120" height="40" as="geometry" />
        </mxCell>
        <mxCell id="UR1esaYo1cbjDjkYrfGj-7" value="&lt;font style=&quot;font-size: 18px;&quot;&gt;Bronze Layer&lt;/font&gt;" style="rounded=1;whiteSpace=wrap;html=1;fillColor=#fad7ac;strokeColor=none;" parent="1" vertex="1">
          <mxGeometry x="23" y="110" width="160" height="40" as="geometry" />
        </mxCell>
        <mxCell id="UR1esaYo1cbjDjkYrfGj-8" value="" style="rounded=1;whiteSpace=wrap;html=1;fillColor=none;strokeColor=light-dark(#e1b466, #babdc0);labelBorderColor=light-dark(#e4ce7c, #ededed);" parent="1" vertex="1">
          <mxGeometry x="23" y="160" width="160" height="450" as="geometry" />
        </mxCell>
        <mxCell id="UR1esaYo1cbjDjkYrfGj-9" value="&lt;font style=&quot;font-size: 18px;&quot;&gt;Silver Layer&lt;/font&gt;" style="rounded=1;whiteSpace=wrap;html=1;fillColor=#eeeeee;strokeColor=none;" parent="1" vertex="1">
          <mxGeometry x="223" y="110" width="160" height="40" as="geometry" />
        </mxCell>
        <mxCell id="UR1esaYo1cbjDjkYrfGj-10" value="" style="rounded=1;whiteSpace=wrap;html=1;fillColor=none;strokeColor=light-dark(#C0BCBC,#EDEDED);labelBorderColor=light-dark(#e4ce7c, #ededed);" parent="1" vertex="1">
          <mxGeometry x="223" y="160" width="160" height="450" as="geometry" />
        </mxCell>
        <mxCell id="UR1esaYo1cbjDjkYrfGj-11" value="&lt;font style=&quot;font-size: 18px;&quot;&gt;&lt;font style=&quot;&quot;&gt;Gold&lt;/font&gt;&lt;span style=&quot;background-color: transparent; color: light-dark(rgb(0, 0, 0), rgb(255, 255, 255));&quot;&gt;&amp;nbsp;Layer&lt;/span&gt;&lt;/font&gt;" style="rounded=1;whiteSpace=wrap;html=1;fillColor=#ffff88;strokeColor=none;" parent="1" vertex="1">
          <mxGeometry x="413" y="110" width="170" height="40" as="geometry" />
        </mxCell>
        <mxCell id="UR1esaYo1cbjDjkYrfGj-12" value="" style="rounded=1;whiteSpace=wrap;html=1;fillColor=none;strokeColor=light-dark(#e7ea3e, #babdc0);labelBorderColor=light-dark(#e4ce7c, #ededed);" parent="1" vertex="1">
          <mxGeometry x="413" y="160" width="170" height="452" as="geometry" />
        </mxCell>
        <mxCell id="UR1esaYo1cbjDjkYrfGj-13" value="&lt;b&gt;CRM&lt;/b&gt;" style="image;aspect=fixed;html=1;points=[];align=center;fontSize=12;image=img/lib/azure2/general/Folder_Blank.svg;" parent="1" vertex="1">
          <mxGeometry x="-135" y="170" width="49.29" height="40" as="geometry" />
        </mxCell>
        <mxCell id="UR1esaYo1cbjDjkYrfGj-15" value="" style="image;aspect=fixed;html=1;points=[];align=center;fontSize=12;image=img/lib/azure2/general/File.svg;" parent="1" vertex="1">
          <mxGeometry x="-97.17" y="190" width="24.34" height="30" as="geometry" />
        </mxCell>
        <mxCell id="UR1esaYo1cbjDjkYrfGj-17" value="&lt;b&gt;ERP&lt;/b&gt;" style="image;aspect=fixed;html=1;points=[];align=center;fontSize=12;image=img/lib/azure2/general/Folder_Blank.svg;" parent="1" vertex="1">
          <mxGeometry x="-133.91" y="269" width="50.52" height="41" as="geometry" />
        </mxCell>
        <mxCell id="UR1esaYo1cbjDjkYrfGj-18" value="" style="image;aspect=fixed;html=1;points=[];align=center;fontSize=12;image=img/lib/azure2/general/File.svg;" parent="1" vertex="1">
          <mxGeometry x="-97" y="288.33" width="24.17" height="29.79" as="geometry" />
        </mxCell>
        <mxCell id="UR1esaYo1cbjDjkYrfGj-25" value="" style="endArrow=none;html=1;rounded=0;" parent="1" edge="1">
          <mxGeometry width="50" height="50" relative="1" as="geometry">
            <mxPoint x="-168.09" y="361.71" as="sourcePoint" />
            <mxPoint x="-38.09" y="361.71" as="targetPoint" />
          </mxGeometry>
        </mxCell>
        <mxCell id="UR1esaYo1cbjDjkYrfGj-26" value="" style="endArrow=none;html=1;rounded=0;fillColor=#ffcc99;strokeColor=#FFCC99;" parent="1" edge="1">
          <mxGeometry width="50" height="50" relative="1" as="geometry">
            <mxPoint x="36.91" y="361.71" as="sourcePoint" />
            <mxPoint x="173" y="360" as="targetPoint" />
          </mxGeometry>
        </mxCell>
        <mxCell id="UR1esaYo1cbjDjkYrfGj-27" value="" style="endArrow=none;html=1;rounded=0;strokeColor=light-dark(#c3bbbb, #8e8e8e);" parent="1" edge="1">
          <mxGeometry width="50" height="50" relative="1" as="geometry">
            <mxPoint x="226.91000000000003" y="361.71" as="sourcePoint" />
            <mxPoint x="373" y="360" as="targetPoint" />
          </mxGeometry>
        </mxCell>
        <mxCell id="UR1esaYo1cbjDjkYrfGj-28" value="" style="endArrow=none;html=1;rounded=0;strokeColor=#FFFF00;" parent="1" edge="1">
          <mxGeometry width="50" height="50" relative="1" as="geometry">
            <mxPoint x="420.9599999999999" y="364" as="sourcePoint" />
            <mxPoint x="575" y="362" as="targetPoint" />
          </mxGeometry>
        </mxCell>
        <mxCell id="UR1esaYo1cbjDjkYrfGj-29" value="&lt;b&gt;Object Type:&lt;/b&gt; CSV files&lt;div&gt;&lt;br&gt;&lt;div&gt;&lt;b&gt;Interface: &lt;/b&gt;Files in folder&lt;/div&gt;&lt;/div&gt;" style="rounded=0;whiteSpace=wrap;html=1;align=left;strokeColor=none;" parent="1" vertex="1">
          <mxGeometry x="-167" y="380" width="120" height="60" as="geometry" />
        </mxCell>
        <mxCell id="UR1esaYo1cbjDjkYrfGj-30" value="" style="html=1;verticalLabelPosition=bottom;align=center;labelBackgroundColor=#ffffff;verticalAlign=top;strokeWidth=2;strokeColor=light-dark(#e1b466, #babdc0);shadow=0;dashed=0;shape=mxgraph.ios7.icons.data;fillColor=#ffcc99;" parent="1" vertex="1">
          <mxGeometry x="68" y="235.5" width="50" height="49" as="geometry" />
        </mxCell>
        <mxCell id="UR1esaYo1cbjDjkYrfGj-31" value="" style="html=1;verticalLabelPosition=bottom;align=center;labelBackgroundColor=#ffffff;verticalAlign=top;strokeWidth=2;strokeColor=light-dark(#aeb4bc, #babdc0);shadow=0;dashed=0;shape=mxgraph.ios7.icons.data;fillColor=#eeeeee;" parent="1" vertex="1">
          <mxGeometry x="263" y="229.5" width="50" height="49" as="geometry" />
        </mxCell>
        <mxCell id="UR1esaYo1cbjDjkYrfGj-32" value="" style="html=1;verticalLabelPosition=bottom;align=center;labelBackgroundColor=#ffffff;verticalAlign=top;strokeWidth=2;strokeColor=light-dark(#c9c65e, #babdc0);shadow=0;dashed=0;shape=mxgraph.ios7.icons.data;fillColor=#ffff88;" parent="1" vertex="1">
          <mxGeometry x="453" y="229.5" width="50" height="49" as="geometry" />
        </mxCell>
        <mxCell id="UR1esaYo1cbjDjkYrfGj-33" value="" style="shape=singleArrow;whiteSpace=wrap;html=1;fillColor=#cce5ff;strokeColor=light-dark(#a2d3dd, #ededed);" parent="1" vertex="1">
          <mxGeometry x="-23" y="240" width="63" height="40" as="geometry" />
        </mxCell>
        <mxCell id="UR1esaYo1cbjDjkYrfGj-34" value="" style="shape=singleArrow;whiteSpace=wrap;html=1;fillColor=#cce5ff;strokeColor=light-dark(#a2d3dd, #ededed);" parent="1" vertex="1">
          <mxGeometry x="177" y="240" width="64" height="40" as="geometry" />
        </mxCell>
        <mxCell id="UR1esaYo1cbjDjkYrfGj-35" value="" style="shape=singleArrow;whiteSpace=wrap;html=1;fillColor=#cce5ff;strokeColor=light-dark(#a2d3dd, #ededed);" parent="1" vertex="1">
          <mxGeometry x="376" y="240" width="54" height="40" as="geometry" />
        </mxCell>
        <mxCell id="UR1esaYo1cbjDjkYrfGj-36" value="&lt;font style=&quot;font-size: 13px;&quot;&gt;Raw Data&lt;/font&gt;" style="text;html=1;align=center;verticalAlign=middle;whiteSpace=wrap;rounded=0;" parent="1" vertex="1">
          <mxGeometry x="55.5" y="290" width="75" height="30" as="geometry" />
        </mxCell>
        <mxCell id="UR1esaYo1cbjDjkYrfGj-37" value="&lt;font style=&quot;font-size: 13px;&quot;&gt;Cleaned, Standardised Data&lt;/font&gt;" style="text;html=1;align=center;verticalAlign=middle;whiteSpace=wrap;rounded=0;" parent="1" vertex="1">
          <mxGeometry x="233" y="290" width="110" height="30" as="geometry" />
        </mxCell>
        <mxCell id="UR1esaYo1cbjDjkYrfGj-38" value="&lt;font style=&quot;font-size: 13px;&quot;&gt;Business-Ready Data&lt;/font&gt;" style="text;html=1;align=center;verticalAlign=middle;whiteSpace=wrap;rounded=0;" parent="1" vertex="1">
          <mxGeometry x="423" y="288.12" width="110" height="30" as="geometry" />
        </mxCell>
        <mxCell id="UR1esaYo1cbjDjkYrfGj-41" value="&lt;b&gt;Object Type:&lt;/b&gt;&amp;nbsp;Tables&lt;div&gt;&lt;br&gt;&lt;div&gt;&lt;b&gt;Load:&amp;nbsp;&lt;/b&gt;&lt;/div&gt;&lt;/div&gt;&lt;div&gt;&lt;b&gt;* &lt;/b&gt;Batch Processing&lt;/div&gt;&lt;div&gt;* Full Load&amp;nbsp;&lt;/div&gt;&lt;div&gt;* Truncate &amp;amp; Insert&lt;/div&gt;&lt;div&gt;&lt;b&gt;&lt;br&gt;&lt;/b&gt;&lt;/div&gt;&lt;div&gt;&lt;b&gt;No Tansformations&lt;/b&gt;&lt;/div&gt;&lt;div&gt;&lt;b&gt;Data Model: &lt;/b&gt;None (as-is)&lt;/div&gt;" style="rounded=0;whiteSpace=wrap;html=1;align=left;strokeColor=none;" parent="1" vertex="1">
          <mxGeometry x="33" y="400" width="140" height="80" as="geometry" />
        </mxCell>
        <mxCell id="UR1esaYo1cbjDjkYrfGj-42" value="&lt;b&gt;Object Type:&lt;/b&gt;&amp;nbsp;Tables&lt;div&gt;&lt;br&gt;&lt;div&gt;&lt;b&gt;Load:&amp;nbsp;&lt;/b&gt;&lt;/div&gt;&lt;/div&gt;&lt;div&gt;&lt;b&gt;* &lt;/b&gt;Batch Processing&lt;/div&gt;&lt;div&gt;* Full Load&amp;nbsp;&lt;/div&gt;&lt;div&gt;* Truncate &amp;amp; Insert&lt;/div&gt;&lt;div&gt;&lt;b&gt;&lt;br&gt;&lt;/b&gt;&lt;/div&gt;&lt;div&gt;&lt;b&gt;Tansformations:&lt;/b&gt;&lt;/div&gt;&lt;div&gt;* Data Cleansing&lt;/div&gt;&lt;div&gt;* Data Standardisation&lt;/div&gt;&lt;div&gt;* Data Normalisation&lt;/div&gt;&lt;div&gt;* Derived Columns&lt;/div&gt;&lt;div&gt;* Data Enrichment&lt;/div&gt;&lt;div&gt;&lt;b&gt;&lt;br&gt;&lt;/b&gt;&lt;/div&gt;&lt;div&gt;&lt;b&gt;Data Model: &lt;/b&gt;None (as-is)&lt;/div&gt;" style="rounded=0;whiteSpace=wrap;html=1;align=left;strokeColor=none;" parent="1" vertex="1">
          <mxGeometry x="233" y="440" width="140" height="80" as="geometry" />
        </mxCell>
        <mxCell id="UR1esaYo1cbjDjkYrfGj-43" value="&lt;b&gt;Object Type:&lt;/b&gt;&amp;nbsp;Views&lt;div&gt;&lt;br&gt;&lt;div&gt;&lt;b&gt;No Load&lt;/b&gt;&lt;/div&gt;&lt;div&gt;&lt;b&gt;&lt;br&gt;&lt;/b&gt;&lt;/div&gt;&lt;div&gt;&lt;b&gt;Transformations:&amp;nbsp;&lt;/b&gt;&lt;/div&gt;&lt;/div&gt;&lt;div&gt;* Data Integrations&lt;/div&gt;&lt;div&gt;* Aggregations&lt;/div&gt;&lt;div&gt;* Business Logics&lt;/div&gt;&lt;div&gt;&lt;b&gt;&lt;br&gt;&lt;/b&gt;&lt;/div&gt;&lt;div&gt;&lt;b style=&quot;background-color: transparent; color: light-dark(rgb(0, 0, 0), rgb(255, 255, 255));&quot;&gt;Data Model: &lt;/b&gt;&lt;span style=&quot;background-color: transparent; color: light-dark(rgb(0, 0, 0), rgb(255, 255, 255));&quot;&gt;None (as-is)&lt;/span&gt;&lt;/div&gt;" style="rounded=0;whiteSpace=wrap;html=1;align=left;strokeColor=none;" parent="1" vertex="1">
          <mxGeometry x="433" y="410" width="140" height="80" as="geometry" />
        </mxCell>
        <mxCell id="UR1esaYo1cbjDjkYrfGj-44" value="" style="shape=singleArrow;whiteSpace=wrap;html=1;fillColor=#cce5ff;strokeColor=light-dark(#a2d3dd, #ededed);" parent="1" vertex="1">
          <mxGeometry x="583" y="234" width="56" height="40" as="geometry" />
        </mxCell>
        <mxCell id="UR1esaYo1cbjDjkYrfGj-45" value="" style="image;aspect=fixed;html=1;points=[];align=center;fontSize=12;image=img/lib/azure2/analytics/Power_BI_Embedded.svg;" parent="1" vertex="1">
          <mxGeometry x="658" y="166" width="36" height="48" as="geometry" />
        </mxCell>
        <mxCell id="UR1esaYo1cbjDjkYrfGj-46" value="" style="verticalLabelPosition=bottom;sketch=0;aspect=fixed;html=1;verticalAlign=top;strokeColor=none;align=center;outlineConnect=0;shape=mxgraph.citrix.reporting;" parent="1" vertex="1">
          <mxGeometry x="677.35" y="195.5" width="30.75" height="34.5" as="geometry" />
        </mxCell>
        <mxCell id="UR1esaYo1cbjDjkYrfGj-47" value="" style="verticalLabelPosition=bottom;html=1;verticalAlign=top;align=center;strokeColor=none;fillColor=#00BEF2;shape=mxgraph.azure.sql_reporting;" parent="1" vertex="1">
          <mxGeometry x="663" y="274" width="40" height="50" as="geometry" />
        </mxCell>
        <mxCell id="UR1esaYo1cbjDjkYrfGj-49" value="" style="editableCssRules=.*;html=1;shape=image;verticalLabelPosition=bottom;labelBackgroundColor=#ffffff;verticalAlign=top;aspect=fixed;imageAspect=0;image=data:image/svg+xml,PHN2ZyB4bWxucz0iaHR0cDovL3d3dy53My5vcmcvMjAwMC9zdmciIHhtbG5zOnY9Imh0dHBzOi8vdmVjdGEuaW8vbmFubyIgd2lkdGg9IjE2Ljk3OTk5OTU0MjIzNjMyOCIgaGVpZ2h0PSIyMCIgdmlld0JveD0iMCAwIDE2Ljk3OTk5OTU0MjIzNjMyOCAyMCI+JiN4YTsJPHN0eWxlIHR5cGU9InRleHQvY3NzIj4mI3hhOwkuc3Qwe2ZpbGw6IzY2OWRmNjt9JiN4YTsJLnN0MXtmaWxsOiM0Mjg1ZjQ7fSYjeGE7CS5zdDJ7ZmlsbDojYWVjYmZhO30mI3hhOwk8L3N0eWxlPiYjeGE7CTxnIGNsYXNzPSJzdDAiPiYjeGE7CQk8cGF0aCBkPSJNOC40OSAxMC4yOUwuMjQgNS4zNSA4LjQ5LjU4bDguMjQgNC42N3pNMS43NiA1LjM2bDYuNzIgNCA2LjcyLTQuMTEtNi43MS0zLjc4eiIvPiYjeGE7CQk8cGF0aCBkPSJNOC40OSAxOS40NEwuMjEgMTMuODkgOC40OSA5LjNsOC4xNSA0LjY0em0tNi44LTUuNWw2LjggNC41NiA2LjctNC41LTYuNy0zLjgyeiIvPiYjeGE7CTwvZz4mI3hhOwk8ZyBjbGFzcz0ic3QxIj4mI3hhOwkJPHBhdGggZD0iTS42MTMgNS41MDJsLjY3NS0uMzcxIDcuNDc3IDEzLjYtLjY3NS4zNzF6Ii8+JiN4YTsJCTxwYXRoIGQ9Ik04LjE5NCAxOC44MjZsNy4zMDEtMTMuNTU5LjY3OC4zNjUtNy4zMDEgMTMuNTU5ek0uNzE2IDEzLjY4N0w4LjA5Ni45MDRsLjY2Ny4zODUtNy4zOCAxMi43ODN6Ii8+JiN4YTsJCTxwYXRoIGQ9Ik04LjE5NCAxLjIxNGwuNjY5LS4zODEgNy40MDUgMTIuOTg3LS42NjkuMzgxeiIvPiYjeGE7CQk8cGF0aCBkPSJNOC4xMy45NmguNzdWMTguOWgtLjc3ek0uNTUgNS40M2guNzd2OC42NkguNTV6bTE0Ljk3LS4wOWguNzdWMTRoLS43N3oiLz4mI3hhOwk8L2c+JiN4YTsJPGcgY2xhc3M9InN0MiI+JiN4YTsJCTxjaXJjbGUgY3g9IjguNTIiIGN5PSIxLjA3IiByPSIxLjA3Ii8+JiN4YTsJCTxjaXJjbGUgY3g9IjE1LjkxIiBjeT0iNS4zNCIgcj0iMS4wNyIvPiYjeGE7CQk8Y2lyY2xlIGN4PSIxLjA3IiBjeT0iNS4zNCIgcj0iMS4wNyIvPiYjeGE7CQk8Y2lyY2xlIGN4PSI4LjUyIiBjeT0iOS45MyIgcj0iMS42OCIvPiYjeGE7CQk8Y2lyY2xlIGN4PSIxNS45MSIgY3k9IjEzLjk0IiByPSIxLjA3Ii8+JiN4YTsJCTxjaXJjbGUgY3g9IjEuMDciIGN5PSIxMy45NCIgcj0iMS4wNyIvPiYjeGE7CQk8Y2lyY2xlIGN4PSI4LjUyIiBjeT0iMTguOTMiIHI9IjEuMDciLz4mI3hhOwkJPHBhdGggZD0iTTguNDkgMTAuMjlMLjI0IDUuMzUgOC40OS41OGw4LjI0IDQuNjd6TTEuNzYgNS4zNmw2LjcyIDQgNi43Mi00LjExLTYuNzEtMy43OHoiLz4mI3hhOwkJPHBhdGggZD0iTTguNDkgMTkuNDRMLjIxIDEzLjg5IDguNDkgOS4zbDguMTUgNC42NHptLTYuOC01LjVsNi44IDQuNTYgNi43LTQuNS02LjctMy44MnoiLz4mI3hhOwkJPHBhdGggZD0iTS42MTMgNS41MDJsLjY3NS0uMzcxIDcuNDc3IDEzLjYtLjY3NS4zNzF6Ii8+JiN4YTsJCTxwYXRoIGQ9Ik04LjE5NCAxOC44MjZsNy4zMDEtMTMuNTU5LjY3OC4zNjUtNy4zMDEgMTMuNTU5ek0uNzE2IDEzLjY4N0w4LjA5Ni45MDRsLjY2Ny4zODUtNy4zOCAxMi43ODN6Ii8+JiN4YTsJCTxwYXRoIGQ9Ik04LjE5NCAxLjIxNGwuNjY5LS4zODEgNy40MDUgMTIuOTg3LS42NjkuMzgxeiIvPiYjeGE7CQk8cGF0aCBkPSJNOC4xMy45NmguNzdWMTguOWgtLjc3ek0uNTUgNS40M2guNzd2OC42NkguNTV6bTE0Ljk3LS4wOWguNzdWMTRoLS43N3oiLz4mI3hhOwk8L2c+JiN4YTsJPGcgY2xhc3M9InN0MCI+JiN4YTsJCTxjaXJjbGUgY3g9IjguNTIiIGN5PSIxLjA3IiByPSIxLjA3Ii8+JiN4YTsJCTxjaXJjbGUgY3g9IjE1LjkxIiBjeT0iNS4zNCIgcj0iMS4wNyIvPiYjeGE7CQk8Y2lyY2xlIGN4PSIxLjA3IiBjeT0iNS4zNCIgcj0iMS4wNyIvPiYjeGE7CQk8Y2lyY2xlIGN4PSI4LjUyIiBjeT0iOS45MyIgcj0iMS42OCIvPiYjeGE7CQk8Y2lyY2xlIGN4PSIxNS45MSIgY3k9IjEzLjk0IiByPSIxLjA3Ii8+JiN4YTsJCTxjaXJjbGUgY3g9IjEuMDciIGN5PSIxMy45NCIgcj0iMS4wNyIvPiYjeGE7CQk8Y2lyY2xlIGN4PSI4LjUyIiBjeT0iMTguOTMiIHI9IjEuMDciLz4mI3hhOwk8L2c+JiN4YTs8L3N2Zz4=;" parent="1" vertex="1">
          <mxGeometry x="657.5" y="380" width="51" height="60" as="geometry" />
        </mxCell>
        <mxCell id="UR1esaYo1cbjDjkYrfGj-50" value="&lt;font style=&quot;font-size: 13px;&quot;&gt;BI &amp;amp; Reporting&lt;/font&gt;" style="text;html=1;align=center;verticalAlign=middle;whiteSpace=wrap;rounded=0;" parent="1" vertex="1">
          <mxGeometry x="708" y="176" width="60" height="30" as="geometry" />
        </mxCell>
        <mxCell id="UR1esaYo1cbjDjkYrfGj-51" value="&lt;font style=&quot;font-size: 13px;&quot;&gt;Machine Learning&lt;/font&gt;" style="text;html=1;align=center;verticalAlign=middle;whiteSpace=wrap;rounded=0;" parent="1" vertex="1">
          <mxGeometry x="723" y="405" width="60" height="30" as="geometry" />
        </mxCell>
        <mxCell id="UR1esaYo1cbjDjkYrfGj-52" value="&lt;font style=&quot;font-size: 13px;&quot;&gt;Ad-Hoc SQL Series&lt;/font&gt;" style="text;html=1;align=center;verticalAlign=middle;whiteSpace=wrap;rounded=0;" parent="1" vertex="1">
          <mxGeometry x="713" y="292.5" width="60" height="30" as="geometry" />
        </mxCell>
        <mxCell id="UR1esaYo1cbjDjkYrfGj-55" value="" style="sketch=0;pointerEvents=1;shadow=0;dashed=0;html=1;strokeColor=none;fillColor=#005F4B;labelPosition=center;verticalLabelPosition=bottom;verticalAlign=top;align=center;outlineConnect=0;shape=mxgraph.veeam2.sql_server;" parent="1" vertex="1">
          <mxGeometry x="-2" y="65" width="40" height="42" as="geometry" />
        </mxCell>
        <mxCell id="UR1esaYo1cbjDjkYrfGj-56" value="&lt;font style=&quot;font-size: 13px;&quot;&gt;&lt;b&gt;SQL Server&lt;/b&gt;&lt;/font&gt;" style="text;html=1;align=center;verticalAlign=middle;whiteSpace=wrap;rounded=0;" parent="1" vertex="1">
          <mxGeometry x="38" y="60" width="80" height="30" as="geometry" />
        </mxCell>
      </root>
    </mxGraphModel>
  </diagram>
  <diagram id="aoo8_4wWd9757hlcEwYk" name="Dataflow">
    <mxGraphModel dx="1826" dy="1275" grid="0" gridSize="10" guides="1" tooltips="1" connect="1" arrows="1" fold="1" page="0" pageScale="1" pageWidth="850" pageHeight="1100" math="0" shadow="0">
      <root>
        <mxCell id="0" />
        <mxCell id="1" parent="0" />
        <mxCell id="IPIwQBb8xF2Adb0WO2kz-1" value="" style="rounded=1;whiteSpace=wrap;html=1;fillColor=none;strokeColor=light-dark(#d3cfcf, #ededed);labelBorderColor=none;dashed=1;strokeWidth=2;dashPattern=1 2;" parent="1" vertex="1">
          <mxGeometry x="-193" y="61" width="140" height="440" as="geometry" />
        </mxCell>
        <mxCell id="IPIwQBb8xF2Adb0WO2kz-2" value="&lt;font style=&quot;font-size: 24px;&quot;&gt;Sources&lt;span style=&quot;white-space: pre;&quot;&gt;&#x9;&lt;/span&gt;&lt;/font&gt;" style="rounded=0;whiteSpace=wrap;html=1;strokeColor=none;" parent="1" vertex="1">
          <mxGeometry x="-163.36" y="41" width="90" height="40" as="geometry" />
        </mxCell>
        <mxCell id="IPIwQBb8xF2Adb0WO2kz-3" value="&lt;font style=&quot;font-size: 18px;&quot;&gt;Bronze Layer&lt;/font&gt;" style="rounded=1;whiteSpace=wrap;html=1;fillColor=#FAD7AC;strokeColor=#FAD7AC;" parent="1" vertex="1">
          <mxGeometry x="7" y="54" width="160" height="40" as="geometry" />
        </mxCell>
        <mxCell id="IPIwQBb8xF2Adb0WO2kz-4" value="" style="rounded=1;whiteSpace=wrap;html=1;fillColor=none;strokeColor=light-dark(#e1b466, #babdc0);labelBorderColor=light-dark(#e4ce7c, #ededed);" parent="1" vertex="1">
          <mxGeometry x="7" y="101" width="163" height="400" as="geometry" />
        </mxCell>
        <mxCell id="IPIwQBb8xF2Adb0WO2kz-5" value="&lt;font style=&quot;font-size: 18px;&quot;&gt;Silver Layer&lt;/font&gt;" style="rounded=1;whiteSpace=wrap;html=1;fillColor=#eeeeee;strokeColor=light-dark(#cbc8c8, #ededed);" parent="1" vertex="1">
          <mxGeometry x="226" y="54" width="160" height="40" as="geometry" />
        </mxCell>
        <mxCell id="IPIwQBb8xF2Adb0WO2kz-6" value="" style="rounded=1;whiteSpace=wrap;html=1;fillColor=none;strokeColor=light-dark(#C0BCBC,#EDEDED);labelBorderColor=light-dark(#e4ce7c, #ededed);" parent="1" vertex="1">
          <mxGeometry x="226" y="101" width="162" height="400" as="geometry" />
        </mxCell>
        <mxCell id="IPIwQBb8xF2Adb0WO2kz-7" value="&lt;font style=&quot;font-size: 18px;&quot;&gt;&lt;font style=&quot;&quot;&gt;Gold&lt;/font&gt;&lt;span style=&quot;background-color: transparent; color: light-dark(rgb(0, 0, 0), rgb(255, 255, 255));&quot;&gt;&amp;nbsp;Layer&lt;/span&gt;&lt;/font&gt;" style="rounded=1;whiteSpace=wrap;html=1;fillColor=#ffff88;strokeColor=none;" parent="1" vertex="1">
          <mxGeometry x="448" y="54" width="170" height="40" as="geometry" />
        </mxCell>
        <mxCell id="IPIwQBb8xF2Adb0WO2kz-8" value="" style="rounded=1;whiteSpace=wrap;html=1;fillColor=none;strokeColor=light-dark(#e7ea3e, #babdc0);labelBorderColor=light-dark(#e4ce7c, #ededed);" parent="1" vertex="1">
          <mxGeometry x="448" y="101" width="170" height="400" as="geometry" />
        </mxCell>
        <mxCell id="IPIwQBb8xF2Adb0WO2kz-9" style="edgeStyle=orthogonalEdgeStyle;rounded=0;orthogonalLoop=1;jettySize=auto;html=1;entryX=0;entryY=0.5;entryDx=0;entryDy=0;" parent="1" source="IPIwQBb8xF2Adb0WO2kz-12" target="IPIwQBb8xF2Adb0WO2kz-17" edge="1">
          <mxGeometry relative="1" as="geometry" />
        </mxCell>
        <mxCell id="IPIwQBb8xF2Adb0WO2kz-10" style="edgeStyle=orthogonalEdgeStyle;rounded=0;orthogonalLoop=1;jettySize=auto;html=1;entryX=0;entryY=0.5;entryDx=0;entryDy=0;" parent="1" source="IPIwQBb8xF2Adb0WO2kz-12" target="IPIwQBb8xF2Adb0WO2kz-18" edge="1">
          <mxGeometry relative="1" as="geometry" />
        </mxCell>
        <mxCell id="IPIwQBb8xF2Adb0WO2kz-11" style="edgeStyle=orthogonalEdgeStyle;rounded=0;orthogonalLoop=1;jettySize=auto;html=1;entryX=0;entryY=0.5;entryDx=0;entryDy=0;" parent="1" source="IPIwQBb8xF2Adb0WO2kz-12" target="IPIwQBb8xF2Adb0WO2kz-19" edge="1">
          <mxGeometry relative="1" as="geometry" />
        </mxCell>
        <mxCell id="IPIwQBb8xF2Adb0WO2kz-12" value="&lt;b&gt;CRM&lt;/b&gt;" style="image;aspect=fixed;html=1;points=[];align=center;fontSize=12;image=img/lib/azure2/general/Folder_Blank.svg;" parent="1" vertex="1">
          <mxGeometry x="-143.01" y="196" width="49.29" height="40" as="geometry" />
        </mxCell>
        <mxCell id="IPIwQBb8xF2Adb0WO2kz-13" style="edgeStyle=orthogonalEdgeStyle;rounded=0;orthogonalLoop=1;jettySize=auto;html=1;" parent="1" source="IPIwQBb8xF2Adb0WO2kz-16" target="IPIwQBb8xF2Adb0WO2kz-21" edge="1">
          <mxGeometry relative="1" as="geometry" />
        </mxCell>
        <mxCell id="IPIwQBb8xF2Adb0WO2kz-14" style="edgeStyle=orthogonalEdgeStyle;rounded=0;orthogonalLoop=1;jettySize=auto;html=1;entryX=0;entryY=0.5;entryDx=0;entryDy=0;" parent="1" source="IPIwQBb8xF2Adb0WO2kz-16" target="IPIwQBb8xF2Adb0WO2kz-20" edge="1">
          <mxGeometry relative="1" as="geometry" />
        </mxCell>
        <mxCell id="IPIwQBb8xF2Adb0WO2kz-15" style="edgeStyle=orthogonalEdgeStyle;rounded=0;orthogonalLoop=1;jettySize=auto;html=1;entryX=0;entryY=0.5;entryDx=0;entryDy=0;" parent="1" source="IPIwQBb8xF2Adb0WO2kz-16" target="IPIwQBb8xF2Adb0WO2kz-22" edge="1">
          <mxGeometry relative="1" as="geometry" />
        </mxCell>
        <mxCell id="IPIwQBb8xF2Adb0WO2kz-16" value="&lt;b&gt;ERP&lt;/b&gt;" style="image;aspect=fixed;html=1;points=[];align=center;fontSize=12;image=img/lib/azure2/general/Folder_Blank.svg;" parent="1" vertex="1">
          <mxGeometry x="-144.24" y="371" width="50.52" height="41" as="geometry" />
        </mxCell>
        <mxCell id="dBcXB0YY83r1R_wrpd8U-7" style="edgeStyle=orthogonalEdgeStyle;rounded=0;orthogonalLoop=1;jettySize=auto;html=1;" edge="1" parent="1" source="IPIwQBb8xF2Adb0WO2kz-17" target="dBcXB0YY83r1R_wrpd8U-1">
          <mxGeometry relative="1" as="geometry" />
        </mxCell>
        <mxCell id="IPIwQBb8xF2Adb0WO2kz-17" value="&lt;font style=&quot;font-size: 14px;&quot;&gt;crm_sales_details&lt;/font&gt;" style="rounded=1;whiteSpace=wrap;html=1;fillColor=#fad7ac;strokeColor=light-dark(#fbd88e, #ededed);" parent="1" vertex="1">
          <mxGeometry x="22" y="151" width="131" height="30" as="geometry" />
        </mxCell>
        <mxCell id="dBcXB0YY83r1R_wrpd8U-8" style="edgeStyle=orthogonalEdgeStyle;rounded=0;orthogonalLoop=1;jettySize=auto;html=1;" edge="1" parent="1" source="IPIwQBb8xF2Adb0WO2kz-18" target="dBcXB0YY83r1R_wrpd8U-2">
          <mxGeometry relative="1" as="geometry" />
        </mxCell>
        <mxCell id="IPIwQBb8xF2Adb0WO2kz-18" value="&lt;font style=&quot;font-size: 14px;&quot;&gt;crm_cust_info&lt;/font&gt;" style="rounded=1;whiteSpace=wrap;html=1;fillColor=#fad7ac;strokeColor=light-dark(#fbd88e, #ededed);" parent="1" vertex="1">
          <mxGeometry x="22" y="201" width="130" height="30" as="geometry" />
        </mxCell>
        <mxCell id="dBcXB0YY83r1R_wrpd8U-9" style="edgeStyle=orthogonalEdgeStyle;rounded=0;orthogonalLoop=1;jettySize=auto;html=1;" edge="1" parent="1" source="IPIwQBb8xF2Adb0WO2kz-19" target="dBcXB0YY83r1R_wrpd8U-3">
          <mxGeometry relative="1" as="geometry" />
        </mxCell>
        <mxCell id="IPIwQBb8xF2Adb0WO2kz-19" value="&lt;font style=&quot;font-size: 14px;&quot;&gt;crm_prd_info&lt;/font&gt;" style="rounded=1;whiteSpace=wrap;html=1;fillColor=#fad7ac;strokeColor=light-dark(#fbd88e, #ededed);" parent="1" vertex="1">
          <mxGeometry x="22" y="251" width="130" height="30" as="geometry" />
        </mxCell>
        <mxCell id="dBcXB0YY83r1R_wrpd8U-10" style="edgeStyle=orthogonalEdgeStyle;rounded=0;orthogonalLoop=1;jettySize=auto;html=1;" edge="1" parent="1" source="IPIwQBb8xF2Adb0WO2kz-20" target="dBcXB0YY83r1R_wrpd8U-4">
          <mxGeometry relative="1" as="geometry" />
        </mxCell>
        <mxCell id="IPIwQBb8xF2Adb0WO2kz-20" value="&lt;font style=&quot;font-size: 14px;&quot;&gt;erp_cust_az12&lt;/font&gt;" style="rounded=1;whiteSpace=wrap;html=1;fillColor=#fad7ac;strokeColor=light-dark(#fbd88e, #ededed);" parent="1" vertex="1">
          <mxGeometry x="27" y="326.5" width="130" height="30" as="geometry" />
        </mxCell>
        <mxCell id="dBcXB0YY83r1R_wrpd8U-11" style="edgeStyle=orthogonalEdgeStyle;rounded=0;orthogonalLoop=1;jettySize=auto;html=1;" edge="1" parent="1" source="IPIwQBb8xF2Adb0WO2kz-21" target="dBcXB0YY83r1R_wrpd8U-5">
          <mxGeometry relative="1" as="geometry" />
        </mxCell>
        <mxCell id="IPIwQBb8xF2Adb0WO2kz-21" value="&lt;font style=&quot;font-size: 14px;&quot;&gt;erp_loc_a101&lt;/font&gt;" style="rounded=1;whiteSpace=wrap;html=1;fillColor=#fad7ac;strokeColor=light-dark(#fbd88e, #ededed);" parent="1" vertex="1">
          <mxGeometry x="27" y="376.5" width="130" height="30" as="geometry" />
        </mxCell>
        <mxCell id="dBcXB0YY83r1R_wrpd8U-12" style="edgeStyle=orthogonalEdgeStyle;rounded=0;orthogonalLoop=1;jettySize=auto;html=1;" edge="1" parent="1" source="IPIwQBb8xF2Adb0WO2kz-22" target="dBcXB0YY83r1R_wrpd8U-6">
          <mxGeometry relative="1" as="geometry" />
        </mxCell>
        <mxCell id="IPIwQBb8xF2Adb0WO2kz-22" value="&lt;font style=&quot;font-size: 14px;&quot;&gt;erp_px_cat_g1v2&lt;/font&gt;" style="rounded=1;whiteSpace=wrap;html=1;fillColor=#fad7ac;strokeColor=light-dark(#fbd88e, #ededed);" parent="1" vertex="1">
          <mxGeometry x="27" y="426.5" width="130" height="30" as="geometry" />
        </mxCell>
        <mxCell id="IPIwQBb8xF2Adb0WO2kz-23" value="&lt;h1 style=&quot;margin-top: 0px;&quot;&gt;Dataflow&lt;/h1&gt;" style="text;html=1;whiteSpace=wrap;overflow=hidden;rounded=0;" parent="1" vertex="1">
          <mxGeometry x="-186" y="-35" width="180" height="53" as="geometry" />
        </mxCell>
        <mxCell id="dBcXB0YY83r1R_wrpd8U-1" value="&lt;font style=&quot;font-size: 14px;&quot;&gt;crm_sales_details&lt;/font&gt;" style="rounded=1;whiteSpace=wrap;html=1;fillColor=#f5f5f5;strokeColor=light-dark(#c1bdbd, #959595);fontColor=#333333;" vertex="1" parent="1">
          <mxGeometry x="238.5" y="151" width="130" height="30" as="geometry" />
        </mxCell>
        <mxCell id="dBcXB0YY83r1R_wrpd8U-2" value="&lt;font style=&quot;font-size: 14px;&quot;&gt;crm_cust_info&lt;/font&gt;" style="rounded=1;whiteSpace=wrap;html=1;fillColor=#f5f5f5;strokeColor=light-dark(#c1bdbd, #959595);fontColor=#333333;" vertex="1" parent="1">
          <mxGeometry x="238.5" y="201" width="130" height="30" as="geometry" />
        </mxCell>
        <mxCell id="dBcXB0YY83r1R_wrpd8U-3" value="&lt;font style=&quot;font-size: 14px;&quot;&gt;crm_prd_info&lt;/font&gt;" style="rounded=1;whiteSpace=wrap;html=1;fillColor=#f5f5f5;strokeColor=light-dark(#c1bdbd, #959595);fontColor=#333333;" vertex="1" parent="1">
          <mxGeometry x="238.5" y="251" width="130" height="30" as="geometry" />
        </mxCell>
        <mxCell id="dBcXB0YY83r1R_wrpd8U-4" value="&lt;font style=&quot;font-size: 14px;&quot;&gt;erp_cust_az12&lt;/font&gt;" style="rounded=1;whiteSpace=wrap;html=1;fillColor=#f5f5f5;strokeColor=light-dark(#c1bdbd, #959595);fontColor=#333333;" vertex="1" parent="1">
          <mxGeometry x="243.5" y="326.5" width="130" height="30" as="geometry" />
        </mxCell>
        <mxCell id="dBcXB0YY83r1R_wrpd8U-5" value="&lt;font style=&quot;font-size: 14px;&quot;&gt;erp_loc_a101&lt;/font&gt;" style="rounded=1;whiteSpace=wrap;html=1;fillColor=#f5f5f5;strokeColor=light-dark(#c1bdbd, #959595);fontColor=#333333;" vertex="1" parent="1">
          <mxGeometry x="243.5" y="376.5" width="130" height="30" as="geometry" />
        </mxCell>
        <mxCell id="dBcXB0YY83r1R_wrpd8U-6" value="&lt;font style=&quot;font-size: 14px;&quot;&gt;erp_px_cat_g1v2&lt;/font&gt;" style="rounded=1;whiteSpace=wrap;html=1;fillColor=#f5f5f5;strokeColor=light-dark(#c1bdbd, #959595);fontColor=#333333;" vertex="1" parent="1">
          <mxGeometry x="243.5" y="426.5" width="130" height="30" as="geometry" />
        </mxCell>
      </root>
    </mxGraphModel>
  </diagram>
  <diagram id="FA_snSYHQccSHjX-8fR3" name="Integration Model">
    <mxGraphModel dx="1842" dy="1060" grid="0" gridSize="10" guides="1" tooltips="1" connect="1" arrows="1" fold="1" page="0" pageScale="1" pageWidth="850" pageHeight="1100" math="0" shadow="0">
      <root>
        <mxCell id="0" />
        <mxCell id="1" parent="0" />
        <mxCell id="HXkBWCQ-2Sli0EYjb1tV-39" value="" style="rounded=1;whiteSpace=wrap;html=1;dashed=1;fillColor=none;strokeColor=light-dark(#817e7e, #979797);" vertex="1" parent="1">
          <mxGeometry x="239" y="-139" width="294" height="507" as="geometry" />
        </mxCell>
        <mxCell id="HXkBWCQ-2Sli0EYjb1tV-33" value="" style="rounded=1;whiteSpace=wrap;html=1;dashed=1;strokeColor=light-dark(#9e9a9a, #ededed);" vertex="1" parent="1">
          <mxGeometry x="-439" y="-139" width="611" height="507" as="geometry" />
        </mxCell>
        <mxCell id="HXkBWCQ-2Sli0EYjb1tV-1" value="&lt;h1 style=&quot;margin-top: 0px;&quot;&gt;Integration Model&lt;/h1&gt;" style="text;html=1;whiteSpace=wrap;overflow=hidden;rounded=0;" vertex="1" parent="1">
          <mxGeometry x="-431" y="-258" width="269" height="76" as="geometry" />
        </mxCell>
        <mxCell id="HXkBWCQ-2Sli0EYjb1tV-2" value="(how tables are related)" style="text;html=1;align=center;verticalAlign=middle;whiteSpace=wrap;rounded=0;" vertex="1" parent="1">
          <mxGeometry x="-427" y="-226" width="174" height="30" as="geometry" />
        </mxCell>
        <mxCell id="HXkBWCQ-2Sli0EYjb1tV-3" value="&lt;font&gt;crm_cust_info&lt;span style=&quot;white-space: pre;&quot;&gt;&#x9;&lt;/span&gt;&lt;/font&gt;" style="swimlane;fontStyle=0;childLayout=stackLayout;horizontal=1;startSize=30;horizontalStack=0;resizeParent=1;resizeParentMax=0;resizeLast=0;collapsible=1;marginBottom=0;whiteSpace=wrap;html=1;rounded=1;strokeColor=#36393d;fillColor=#cce5ff;fontSize=15;" vertex="1" parent="1">
          <mxGeometry x="-71" y="186" width="208" height="118" as="geometry" />
        </mxCell>
        <mxCell id="HXkBWCQ-2Sli0EYjb1tV-4" value="&lt;font&gt;cst_id&lt;span style=&quot;white-space: pre;&quot;&gt;&#x9;&lt;/span&gt;&lt;/font&gt;" style="text;strokeColor=none;fillColor=none;align=left;verticalAlign=middle;spacingLeft=4;spacingRight=4;overflow=hidden;points=[[0,0.5],[1,0.5]];portConstraint=eastwest;rotatable=0;whiteSpace=wrap;html=1;fontSize=15;spacing=4;" vertex="1" parent="HXkBWCQ-2Sli0EYjb1tV-3">
          <mxGeometry y="30" width="208" height="44" as="geometry" />
        </mxCell>
        <mxCell id="HXkBWCQ-2Sli0EYjb1tV-24" value="cst_key" style="text;align=left;verticalAlign=middle;spacingLeft=4;spacingRight=4;overflow=hidden;points=[[0,0.5],[1,0.5]];portConstraint=eastwest;rotatable=0;whiteSpace=wrap;html=1;fontSize=15;spacing=4;rounded=1;glass=0;shadow=0;" vertex="1" parent="HXkBWCQ-2Sli0EYjb1tV-3">
          <mxGeometry y="74" width="208" height="44" as="geometry" />
        </mxCell>
        <mxCell id="HXkBWCQ-2Sli0EYjb1tV-8" value="&lt;font&gt;Customer Information&lt;span style=&quot;white-space: pre;&quot;&gt;&#x9;&lt;/span&gt;&lt;/font&gt;" style="text;html=1;align=center;verticalAlign=middle;whiteSpace=wrap;rounded=0;fontSize=15;" vertex="1" parent="1">
          <mxGeometry x="-68.5" y="156" width="214" height="30" as="geometry" />
        </mxCell>
        <mxCell id="HXkBWCQ-2Sli0EYjb1tV-9" value="&lt;span&gt;crm_prd_info&lt;/span&gt;" style="swimlane;fontStyle=0;childLayout=stackLayout;horizontal=1;startSize=30;horizontalStack=0;resizeParent=1;resizeParentMax=0;resizeLast=0;collapsible=1;marginBottom=0;whiteSpace=wrap;html=1;rounded=1;strokeColor=#36393d;fillColor=#cce5ff;fontSize=15;" vertex="1" parent="1">
          <mxGeometry x="-68.5" y="-60" width="208" height="74" as="geometry" />
        </mxCell>
        <mxCell id="HXkBWCQ-2Sli0EYjb1tV-10" value="&lt;span&gt;prd_key&lt;/span&gt;" style="text;strokeColor=none;fillColor=none;align=left;verticalAlign=middle;spacingLeft=4;spacingRight=4;overflow=hidden;points=[[0,0.5],[1,0.5]];portConstraint=eastwest;rotatable=0;whiteSpace=wrap;html=1;fontSize=15;spacing=4;" vertex="1" parent="HXkBWCQ-2Sli0EYjb1tV-9">
          <mxGeometry y="30" width="208" height="44" as="geometry" />
        </mxCell>
        <mxCell id="HXkBWCQ-2Sli0EYjb1tV-11" value="&lt;span&gt;Current &amp;amp; History Product Information&lt;/span&gt;" style="text;html=1;align=center;verticalAlign=middle;whiteSpace=wrap;rounded=0;fontSize=15;" vertex="1" parent="1">
          <mxGeometry x="-105.5" y="-90" width="277" height="30" as="geometry" />
        </mxCell>
        <mxCell id="HXkBWCQ-2Sli0EYjb1tV-14" value="&lt;span&gt;crm_sales_details&lt;/span&gt;" style="swimlane;fontStyle=0;childLayout=stackLayout;horizontal=1;startSize=30;horizontalStack=0;resizeParent=1;resizeParentMax=0;resizeLast=0;collapsible=1;marginBottom=0;whiteSpace=wrap;html=1;rounded=1;strokeColor=#36393d;fillColor=#cce5ff;fontSize=15;" vertex="1" parent="1">
          <mxGeometry x="-423.5" y="58" width="208" height="118" as="geometry" />
        </mxCell>
        <mxCell id="HXkBWCQ-2Sli0EYjb1tV-15" value="&lt;span&gt;prd_key&lt;/span&gt;" style="text;strokeColor=none;fillColor=none;align=left;verticalAlign=middle;spacingLeft=4;spacingRight=4;overflow=hidden;points=[[0,0.5],[1,0.5]];portConstraint=eastwest;rotatable=0;whiteSpace=wrap;html=1;fontSize=15;spacing=4;" vertex="1" parent="HXkBWCQ-2Sli0EYjb1tV-14">
          <mxGeometry y="30" width="208" height="44" as="geometry" />
        </mxCell>
        <mxCell id="HXkBWCQ-2Sli0EYjb1tV-17" value="&lt;span&gt;cst_id&lt;/span&gt;" style="text;align=left;verticalAlign=middle;spacingLeft=4;spacingRight=4;overflow=hidden;points=[[0,0.5],[1,0.5]];portConstraint=eastwest;rotatable=0;whiteSpace=wrap;html=1;fontSize=15;spacing=4;rounded=1;" vertex="1" parent="HXkBWCQ-2Sli0EYjb1tV-14">
          <mxGeometry y="74" width="208" height="44" as="geometry" />
        </mxCell>
        <mxCell id="HXkBWCQ-2Sli0EYjb1tV-16" value="&lt;span&gt;Transactional Records about Sales &amp;amp; Orders&lt;/span&gt;" style="text;html=1;align=center;verticalAlign=middle;whiteSpace=wrap;rounded=0;fontSize=15;" vertex="1" parent="1">
          <mxGeometry x="-431" y="22" width="214" height="30" as="geometry" />
        </mxCell>
        <mxCell id="HXkBWCQ-2Sli0EYjb1tV-18" style="edgeStyle=orthogonalEdgeStyle;rounded=0;orthogonalLoop=1;jettySize=auto;html=1;entryX=-0.011;entryY=0.264;entryDx=0;entryDy=0;entryPerimeter=0;fontSize=15;" edge="1" parent="1" source="HXkBWCQ-2Sli0EYjb1tV-15" target="HXkBWCQ-2Sli0EYjb1tV-10">
          <mxGeometry relative="1" as="geometry" />
        </mxCell>
        <mxCell id="HXkBWCQ-2Sli0EYjb1tV-19" style="edgeStyle=orthogonalEdgeStyle;rounded=0;orthogonalLoop=1;jettySize=auto;html=1;entryX=0;entryY=0.5;entryDx=0;entryDy=0;fontSize=15;" edge="1" parent="1" source="HXkBWCQ-2Sli0EYjb1tV-17" target="HXkBWCQ-2Sli0EYjb1tV-4">
          <mxGeometry relative="1" as="geometry" />
        </mxCell>
        <mxCell id="HXkBWCQ-2Sli0EYjb1tV-20" value="&lt;span&gt;erp_cust_az12&lt;/span&gt;" style="swimlane;fontStyle=0;childLayout=stackLayout;horizontal=1;startSize=30;horizontalStack=0;resizeParent=1;resizeParentMax=0;resizeLast=0;collapsible=1;marginBottom=0;whiteSpace=wrap;html=1;rounded=1;strokeColor=#36393d;fillColor=#ffcccc;fontSize=15;" vertex="1" parent="1">
          <mxGeometry x="273" y="102" width="208" height="74" as="geometry" />
        </mxCell>
        <mxCell id="HXkBWCQ-2Sli0EYjb1tV-21" value="&lt;span&gt;cid&lt;/span&gt;" style="text;strokeColor=none;fillColor=none;align=left;verticalAlign=middle;spacingLeft=4;spacingRight=4;overflow=hidden;points=[[0,0.5],[1,0.5]];portConstraint=eastwest;rotatable=0;whiteSpace=wrap;html=1;fontSize=15;spacing=4;" vertex="1" parent="HXkBWCQ-2Sli0EYjb1tV-20">
          <mxGeometry y="30" width="208" height="44" as="geometry" />
        </mxCell>
        <mxCell id="HXkBWCQ-2Sli0EYjb1tV-22" value="Extra Customer Info (Birthdate)" style="text;html=1;align=center;verticalAlign=middle;whiteSpace=wrap;rounded=0;fontSize=15;" vertex="1" parent="1">
          <mxGeometry x="250" y="72" width="277" height="30" as="geometry" />
        </mxCell>
        <mxCell id="HXkBWCQ-2Sli0EYjb1tV-25" value="&lt;span&gt;erp_loc_a101&lt;/span&gt;" style="swimlane;fontStyle=0;childLayout=stackLayout;horizontal=1;startSize=30;horizontalStack=0;resizeParent=1;resizeParentMax=0;resizeLast=0;collapsible=1;marginBottom=0;whiteSpace=wrap;html=1;rounded=1;strokeColor=#36393d;fillColor=#ffcccc;fontSize=15;" vertex="1" parent="1">
          <mxGeometry x="276" y="263" width="208" height="74" as="geometry" />
        </mxCell>
        <mxCell id="HXkBWCQ-2Sli0EYjb1tV-26" value="&lt;span&gt;cid&lt;/span&gt;" style="text;strokeColor=none;fillColor=none;align=left;verticalAlign=middle;spacingLeft=4;spacingRight=4;overflow=hidden;points=[[0,0.5],[1,0.5]];portConstraint=eastwest;rotatable=0;whiteSpace=wrap;html=1;fontSize=15;spacing=4;" vertex="1" parent="HXkBWCQ-2Sli0EYjb1tV-25">
          <mxGeometry y="30" width="208" height="44" as="geometry" />
        </mxCell>
        <mxCell id="HXkBWCQ-2Sli0EYjb1tV-27" value="Location of Customers (Country)" style="text;html=1;align=center;verticalAlign=middle;whiteSpace=wrap;rounded=0;fontSize=15;" vertex="1" parent="1">
          <mxGeometry x="241.5" y="236" width="277" height="30" as="geometry" />
        </mxCell>
        <mxCell id="HXkBWCQ-2Sli0EYjb1tV-29" value="&lt;span&gt;erp_px_cat_g1v2&lt;/span&gt;" style="swimlane;fontStyle=0;childLayout=stackLayout;horizontal=1;startSize=30;horizontalStack=0;resizeParent=1;resizeParentMax=0;resizeLast=0;collapsible=1;marginBottom=0;whiteSpace=wrap;html=1;rounded=1;strokeColor=#36393d;fillColor=#ffcccc;fontSize=15;" vertex="1" parent="1">
          <mxGeometry x="273.5" y="-47" width="208" height="74" as="geometry" />
        </mxCell>
        <mxCell id="HXkBWCQ-2Sli0EYjb1tV-30" value="&lt;span&gt;id&lt;/span&gt;" style="text;strokeColor=none;fillColor=none;align=left;verticalAlign=middle;spacingLeft=4;spacingRight=4;overflow=hidden;points=[[0,0.5],[1,0.5]];portConstraint=eastwest;rotatable=0;whiteSpace=wrap;html=1;fontSize=15;spacing=4;" vertex="1" parent="HXkBWCQ-2Sli0EYjb1tV-29">
          <mxGeometry y="30" width="208" height="44" as="geometry" />
        </mxCell>
        <mxCell id="HXkBWCQ-2Sli0EYjb1tV-31" value="Extra Product Info" style="text;html=1;align=center;verticalAlign=middle;whiteSpace=wrap;rounded=0;fontSize=15;" vertex="1" parent="1">
          <mxGeometry x="225" y="-79" width="277" height="30" as="geometry" />
        </mxCell>
        <mxCell id="HXkBWCQ-2Sli0EYjb1tV-34" value="&lt;b&gt;&lt;font style=&quot;font-size: 30px;&quot;&gt;CRM&lt;/font&gt;&lt;/b&gt;" style="text;html=1;align=center;verticalAlign=middle;whiteSpace=wrap;rounded=1;fillColor=#cce5ff;strokeColor=#36393d;" vertex="1" parent="1">
          <mxGeometry x="-253" y="-159" width="167" height="46" as="geometry" />
        </mxCell>
        <mxCell id="HXkBWCQ-2Sli0EYjb1tV-36" value="&lt;b&gt;&lt;font style=&quot;font-size: 30px;&quot;&gt;ERP&lt;/font&gt;&lt;/b&gt;" style="text;html=1;align=center;verticalAlign=middle;whiteSpace=wrap;rounded=1;fillColor=#ffcccc;strokeColor=#36393d;" vertex="1" parent="1">
          <mxGeometry x="296.5" y="-163" width="167" height="46" as="geometry" />
        </mxCell>
        <mxCell id="HXkBWCQ-2Sli0EYjb1tV-37" style="edgeStyle=orthogonalEdgeStyle;rounded=0;orthogonalLoop=1;jettySize=auto;html=1;" edge="1" parent="1" source="HXkBWCQ-2Sli0EYjb1tV-30" target="HXkBWCQ-2Sli0EYjb1tV-10">
          <mxGeometry relative="1" as="geometry" />
        </mxCell>
        <mxCell id="HXkBWCQ-2Sli0EYjb1tV-40" style="edgeStyle=orthogonalEdgeStyle;rounded=0;orthogonalLoop=1;jettySize=auto;html=1;" edge="1" parent="1" source="HXkBWCQ-2Sli0EYjb1tV-21" target="HXkBWCQ-2Sli0EYjb1tV-24">
          <mxGeometry relative="1" as="geometry" />
        </mxCell>
        <mxCell id="HXkBWCQ-2Sli0EYjb1tV-41" style="edgeStyle=orthogonalEdgeStyle;rounded=0;orthogonalLoop=1;jettySize=auto;html=1;entryX=1;entryY=0.5;entryDx=0;entryDy=0;" edge="1" parent="1" source="HXkBWCQ-2Sli0EYjb1tV-26" target="HXkBWCQ-2Sli0EYjb1tV-24">
          <mxGeometry relative="1" as="geometry" />
        </mxCell>
      </root>
    </mxGraphModel>
  </diagram>
</mxfile>
